<svg width="222" height="222" viewBox="0 0 222 222" fill="none" xmlns="http://www.w3.org/2000/svg">
<g filter="url(#filter0_dd_107_152)">
<path d="M64.5543 7H157.371C168.524 7 177.566 16.0466 177.566 27.2047C177.566 29.0341 177.191 30.7776 176.516 32.364C175.559 34.6042 173.438 36.1084 171.027 36.4549C164.417 37.4089 155.703 42.3574 147.9 50.1606C136.033 62.0369 130.989 76.2057 136.346 81.6544C141.999 86.5278 155.874 81.4592 167.527 69.8008C175.206 62.1191 180.12 53.5441 181.18 46.97C181.527 44.8262 182.744 42.8862 184.676 41.8929C186.462 40.9783 188.483 40.4602 190.623 40.4602H190.894C201.997 40.4602 211 49.4674 211 60.5756V153.524C211 164.633 201.997 173.64 190.894 173.64H190.623C188.705 173.64 186.88 173.225 185.241 172.479C183.055 171.485 181.569 169.413 181.241 167.034C180.327 160.406 175.37 151.634 167.527 143.785C155.635 131.887 141.493 126.749 136.061 132.151C130.808 137.65 136.068 151.588 147.9 163.421C155.714 171.239 164.452 176.194 171.063 177.131C173.427 177.466 175.505 178.938 176.477 181.125C177.173 182.694 177.563 184.426 177.563 186.252V194.477C177.563 200.755 172.991 205.957 166.999 206.925C166.652 206.982 166.299 207 165.949 207H55.969C55.619 207 55.2655 206.982 54.9191 206.925C48.9265 205.953 44.3554 200.751 44.3554 194.477V186.252C44.3554 184.423 44.7446 182.683 45.4446 181.114C46.416 178.942 48.473 177.47 50.8264 177.127C57.4332 176.169 66.1506 171.221 73.9466 163.421C85.7031 151.659 90.8064 137.643 85.7031 132.073C85.696 132.066 85.696 132.073 85.7031 132.073C80.282 126.649 66.2185 131.88 54.3191 143.785C46.4588 151.649 41.5019 160.442 40.5984 167.069C40.2663 169.495 38.7807 171.646 36.5308 172.607C34.9773 173.272 33.2631 173.64 31.4668 173.64H23.7886C17.3782 173.64 12.0571 168.956 11.0714 162.814C11.0143 162.467 11 162.117 11 161.764V52.2436C11 51.8934 11.0179 51.5397 11.0714 51.1931C12.0571 45.0549 17.3782 40.3673 23.7886 40.3673H31.4668C33.2881 40.3673 35.0237 40.746 36.5951 41.4284C38.7878 42.3824 40.2806 44.4475 40.6448 46.8128C41.6519 53.4048 46.5802 62.0583 54.3191 69.7972C66.0042 81.4877 80.0332 86.6064 85.6544 81.6544C90.8148 76.1164 85.7281 61.9512 73.9466 50.1642C66.172 42.386 57.4797 37.4411 50.8764 36.4692C48.473 36.1155 46.366 34.6113 45.4089 32.3783C44.7303 30.7919 44.3554 29.0448 44.3554 27.2083C44.3554 16.0502 53.3977 7.00358 64.5507 7.00358L64.5543 7Z" fill="#F5F5F5"/>
</g>
<defs>
<filter id="filter0_dd_107_152" x="0" y="0" width="222" height="222" filterUnits="userSpaceOnUse" color-interpolation-filters="sRGB">
<feFlood flood-opacity="0" result="BackgroundImageFix"/>
<feColorMatrix in="SourceAlpha" type="matrix" values="0 0 0 0 0 0 0 0 0 0 0 0 0 0 0 0 0 0 127 0" result="hardAlpha"/>
<feOffset dy="1"/>
<feGaussianBlur stdDeviation="1.5"/>
<feColorMatrix type="matrix" values="0 0 0 0 0 0 0 0 0 0 0 0 0 0 0 0 0 0 0.3 0"/>
<feBlend mode="normal" in2="BackgroundImageFix" result="effect1_dropShadow_107_152"/>
<feColorMatrix in="SourceAlpha" type="matrix" values="0 0 0 0 0 0 0 0 0 0 0 0 0 0 0 0 0 0 127 0" result="hardAlpha"/>
<feMorphology radius="3" operator="dilate" in="SourceAlpha" result="effect2_dropShadow_107_152"/>
<feOffset dy="4"/>
<feGaussianBlur stdDeviation="4"/>
<feColorMatrix type="matrix" values="0 0 0 0 0 0 0 0 0 0 0 0 0 0 0 0 0 0 0.15 0"/>
<feBlend mode="normal" in2="effect1_dropShadow_107_152" result="effect2_dropShadow_107_152"/>
<feBlend mode="normal" in="SourceGraphic" in2="effect2_dropShadow_107_152" result="shape"/>
</filter>
</defs>
</svg>
